HIERARCHY
ROOT Hips
{
	OFFSET 0.000000 0.000000 0.000000
	CHANNELS 6 Xposition Yposition Zposition Xrotation Yrotation Zrotation
	JOINT Spine
	{
		OFFSET 0.000000 9.478148 -2.775501
		CHANNELS 3 Xrotation Yrotation Zrotation
		JOINT Spine1
		{
			OFFSET 0.000000 11.208902 -1.976433
			CHANNELS 3 Xrotation Yrotation Zrotation
			JOINT Spine2
			{
				OFFSET 0.000000 11.338509 -0.991992
				CHANNELS 3 Xrotation Yrotation Zrotation
				JOINT Spine3
				{
					OFFSET 0.000000 11.381817 0.000000
					CHANNELS 3 Xrotation Yrotation Zrotation
					JOINT Neck
					{
						OFFSET 0.000000 14.633766 1.463377
						CHANNELS 3 Xrotation Yrotation Zrotation
						JOINT Neck1
						{
							OFFSET 0.000000 4.974941 0.435251
							CHANNELS 3 Xrotation Yrotation Zrotation
							JOINT Head
							{
								OFFSET 0.000000 4.918083 0.867190
								CHANNELS 3 Xrotation Yrotation Zrotation
								JOINT HeadEnd
								{
									OFFSET 0.000000 9.727722 0.000000
									CHANNELS 3 Xrotation Yrotation Zrotation
									End Site
									{
										OFFSET 0.000000 9.727722 -0.000000
									}
								}
							}
						}
					}
					JOINT RightShoulder
					{
						OFFSET 0.000000 10.452690 6.225392
						CHANNELS 3 Xrotation Yrotation Zrotation
						JOINT RightArm
						{
							OFFSET -18.111942 0.000004 0.000000
							CHANNELS 3 Xrotation Yrotation Zrotation
							JOINT RightForeArm
							{
								OFFSET -28.591759 0.000008 0.000000
								CHANNELS 3 Xrotation Yrotation Zrotation
								JOINT RightHand
								{
									OFFSET -21.365116 0.000008 0.000000
									CHANNELS 3 Xrotation Yrotation Zrotation
									JOINT RightHandMiddle1
									{
										OFFSET -10.503326 0.000004 0.000000
										CHANNELS 3 Xrotation Yrotation Zrotation
										JOINT RightHandMiddle2
										{
											OFFSET -5.526688 0.000000 0.000000
											CHANNELS 3 Xrotation Yrotation Zrotation
											JOINT RightHandMiddle3
											{
												OFFSET -3.514343 0.000000 0.000000
												CHANNELS 3 Xrotation Yrotation Zrotation
												JOINT RightHandMiddle4
												{
													OFFSET -2.174561 0.000000 0.000000
													CHANNELS 3 Xrotation Yrotation Zrotation
													End Site
													{
														OFFSET -2.174568 0.000000 0.000000
													}
												}
											}
										}
									}
									JOINT RightHandRing
									{
										OFFSET -0.250000 -0.250000 -0.938809
										CHANNELS 3 Xrotation Yrotation Zrotation
										JOINT RightHandRing1
										{
											OFFSET -9.254745 0.000004 -0.835184
											CHANNELS 3 Xrotation Yrotation Zrotation
											JOINT RightHandRing2
											{
												OFFSET -5.142273 0.000000 -0.464059
												CHANNELS 3 Xrotation Yrotation Zrotation
												JOINT RightHandRing3
												{
													OFFSET -3.387474 0.000000 -0.305698
													CHANNELS 3 Xrotation Yrotation Zrotation
													JOINT RightHandRing4
													{
														OFFSET -2.153320 0.000000 -0.194324
														CHANNELS 3 Xrotation Yrotation Zrotation
														End Site
														{
															OFFSET -2.153320 0.000000 -0.194324
														}
													}
												}
											}
										}
										JOINT RightHandPinky
										{
											OFFSET -0.164612 -0.250000 -0.957479
											CHANNELS 3 Xrotation Yrotation Zrotation
											JOINT RightHandPinky1
											{
												OFFSET -7.679901 0.000004 -1.717375
												CHANNELS 3 Xrotation Yrotation Zrotation
												JOINT RightHandPinky2
												{
													OFFSET -4.014572 0.000000 -0.897738
													CHANNELS 3 Xrotation Yrotation Zrotation
													JOINT RightHandPinky3
													{
														OFFSET -2.530914 0.000000 -0.565962
														CHANNELS 3 Xrotation Yrotation Zrotation
														JOINT RightHandPinky4
														{
															OFFSET -1.946533 0.000000 -0.435282
															CHANNELS 3 Xrotation Yrotation Zrotation
															End Site
															{
																OFFSET -1.946526 0.000000 -0.435282
															}
														}
													}
												}
											}
										}
									}
									JOINT RightHandIndex
									{
										OFFSET -0.250000 -0.250000 0.938809
										CHANNELS 3 Xrotation Yrotation Zrotation
										JOINT RightHandIndex1
										{
											OFFSET -10.131142 0.000004 0.914273
											CHANNELS 3 Xrotation Yrotation Zrotation
											JOINT RightHandIndex2
											{
												OFFSET -5.259697 0.000000 0.474655
												CHANNELS 3 Xrotation Yrotation Zrotation
												JOINT RightHandIndex3
												{
													OFFSET -3.114670 0.000000 0.281080
													CHANNELS 3 Xrotation Yrotation Zrotation
													JOINT RightHandIndex4
													{
														OFFSET -1.969109 0.000000 0.177699
														CHANNELS 3 Xrotation Yrotation Zrotation
														End Site
														{
															OFFSET -1.969109 0.000000 0.177700
														}
													}
												}
											}
										}
										JOINT RightHandThumb1
										{
											OFFSET -0.164612 -0.750000 0.957479
											CHANNELS 3 Xrotation Yrotation Zrotation
											JOINT RightHandThumb2
											{
												OFFSET -6.052307 0.934448 2.510436
												CHANNELS 3 Xrotation Yrotation Zrotation
												JOINT RightHandThumb3
												{
													OFFSET -3.932266 0.607124 1.631065
													CHANNELS 3 Xrotation Yrotation Zrotation
													JOINT RightHandThumb4
													{
														OFFSET -2.476494 0.382359 1.027225
														CHANNELS 3 Xrotation Yrotation Zrotation
														End Site
														{
															OFFSET -2.476494 0.382359 1.027225
														}
													}
												}
											}
										}
									}
								}
							}
						}
					}
					JOINT LeftShoulder
					{
						OFFSET 0.000000 10.452690 6.225392
						CHANNELS 3 Xrotation Yrotation Zrotation
						JOINT LeftArm
						{
							OFFSET 18.111942 0.000004 0.000000
							CHANNELS 3 Xrotation Yrotation Zrotation
							JOINT LeftForeArm
							{
								OFFSET 28.591759 0.000008 0.000000
								CHANNELS 3 Xrotation Yrotation Zrotation
								JOINT LeftHand
								{
									OFFSET 21.365116 0.000008 0.000000
									CHANNELS 3 Xrotation Yrotation Zrotation
									JOINT LeftHandMiddle1
									{
										OFFSET 9.879738 0.000004 0.000000
										CHANNELS 3 Xrotation Yrotation Zrotation
										JOINT LeftHandMiddle2
										{
											OFFSET 5.155434 0.000000 0.000000
											CHANNELS 3 Xrotation Yrotation Zrotation
											JOINT LeftHandMiddle3
											{
												OFFSET 3.305817 0.000000 0.000000
												CHANNELS 3 Xrotation Yrotation Zrotation
												JOINT LeftHandMiddle4
												{
													OFFSET 2.005173 0.000000 0.000000
													CHANNELS 3 Xrotation Yrotation Zrotation
													End Site
													{
														OFFSET 2.005157 0.000000 0.000000
													}
												}
											}
										}
									}
									JOINT LeftHandRing
									{
										OFFSET 0.250000 -0.250000 -1.020439
										CHANNELS 3 Xrotation Yrotation Zrotation
										JOINT LeftHandRing1
										{
											OFFSET 8.692375 0.000004 -0.784433
											CHANNELS 3 Xrotation Yrotation Zrotation
											JOINT LeftHandRing2
											{
												OFFSET 4.773117 0.000000 -0.430744
												CHANNELS 3 Xrotation Yrotation Zrotation
												JOINT LeftHandRing3
												{
													OFFSET 3.221649 0.000000 -0.290734
													CHANNELS 3 Xrotation Yrotation Zrotation
													JOINT LeftHandRing4
													{
														OFFSET 1.985573 0.000000 -0.179186
														CHANNELS 3 Xrotation Yrotation Zrotation
														End Site
														{
															OFFSET 1.985573 0.000000 -0.179186
														}
													}
												}
											}
										}
										JOINT LeftHandPinky
										{
											OFFSET 0.157272 -0.250000 -1.038779
											CHANNELS 3 Xrotation Yrotation Zrotation
											JOINT LeftHandPinky1
											{
												OFFSET 7.183098 0.000004 -1.606280
												CHANNELS 3 Xrotation Yrotation Zrotation
												JOINT LeftHandPinky2
												{
													OFFSET 3.768478 0.000000 -0.842705
													CHANNELS 3 Xrotation Yrotation Zrotation
													JOINT LeftHandPinky3
													{
														OFFSET 2.365509 0.000000 -0.528975
														CHANNELS 3 Xrotation Yrotation Zrotation
														JOINT LeftHandPinky4
														{
															OFFSET 1.794891 0.000000 -0.401373
															CHANNELS 3 Xrotation Yrotation Zrotation
															End Site
															{
																OFFSET 1.794891 0.000000 -0.401373
															}
														}
													}
												}
											}
										}
									}
									JOINT LeftHandIndex
									{
										OFFSET 0.250000 -0.250000 1.020439
										CHANNELS 3 Xrotation Yrotation Zrotation
										JOINT LeftHandIndex1
										{
											OFFSET 9.462280 0.000004 0.853912
											CHANNELS 3 Xrotation Yrotation Zrotation
											JOINT LeftHandIndex2
											{
												OFFSET 4.935730 0.000000 0.445419
												CHANNELS 3 Xrotation Yrotation Zrotation
												JOINT LeftHandIndex3
												{
													OFFSET 2.934341 0.000000 0.264806
													CHANNELS 3 Xrotation Yrotation Zrotation
													JOINT LeftHandIndex4
													{
														OFFSET 1.815712 0.000000 0.163857
														CHANNELS 3 Xrotation Yrotation Zrotation
														End Site
														{
															OFFSET 1.815712 0.000000 0.163857
														}
													}
												}
											}
										}
										JOINT LeftHandThumb1
										{
											OFFSET 0.157272 -0.750000 1.038779
											CHANNELS 3 Xrotation Yrotation Zrotation
											JOINT LeftHandThumb2
											{
												OFFSET 5.630173 0.869270 2.335339
												CHANNELS 3 Xrotation Yrotation Zrotation
												JOINT LeftHandThumb3
												{
													OFFSET 3.737183 0.577003 1.550144
													CHANNELS 3 Xrotation Yrotation Zrotation
													JOINT LeftHandThumb4
													{
														OFFSET 2.283577 0.352573 0.947204
														CHANNELS 3 Xrotation Yrotation Zrotation
														End Site
														{
															OFFSET 2.283577 0.352573 0.947204
														}
													}
												}
											}
										}
									}
								}
							}
						}
					}
				}
			}
		}
	}
	JOINT RightUpLeg
	{
		OFFSET -10.711558 0.000000 0.000000
		CHANNELS 3 Xrotation Yrotation Zrotation
		JOINT RightLeg
		{
			OFFSET 0.000000 -40.025131 0.000000
			CHANNELS 3 Xrotation Yrotation Zrotation
			JOINT RightFoot
			{
				OFFSET 0.000000 -40.242668 0.000000
				CHANNELS 3 Xrotation Yrotation Zrotation
				JOINT RightForeFoot
				{
					OFFSET 0.000000 -4.238708 0.000000
					CHANNELS 3 Xrotation Yrotation Zrotation
					JOINT RightToeBase
					{
						OFFSET 0.000000 0.000000 16.600136
						CHANNELS 3 Xrotation Yrotation Zrotation
						JOINT RightToeBaseEnd
						{
							OFFSET 0.000000 0.000000 6.968128
							CHANNELS 3 Xrotation Yrotation Zrotation
							End Site
							{
								OFFSET 0.000000 0.000000 6.968124
							}
						}
					}
				}
			}
		}
	}
	JOINT LeftUpLeg
	{
		OFFSET 10.711558 0.000000 0.000000
		CHANNELS 3 Xrotation Yrotation Zrotation
		JOINT LeftLeg
		{
			OFFSET 0.000000 -40.025131 0.000000
			CHANNELS 3 Xrotation Yrotation Zrotation
			JOINT LeftFoot
			{
				OFFSET 0.000000 -40.242668 0.000000
				CHANNELS 3 Xrotation Yrotation Zrotation
				JOINT LeftForeFoot
				{
					OFFSET 0.000000 -4.238708 0.000000
					CHANNELS 3 Xrotation Yrotation Zrotation
					JOINT LeftToeBase
					{
						OFFSET 0.000000 0.000000 16.600136
						CHANNELS 3 Xrotation Yrotation Zrotation
						JOINT LeftToeBaseEnd
						{
							OFFSET 0.000000 0.000000 8.836094
							CHANNELS 3 Xrotation Yrotation Zrotation
							End Site
							{
								OFFSET 0.000000 0.000000 8.836094
							}
						}
					}
				}
			}
		}
	}
}
MOTION
Frames: 4
Frame Time: 0.008333
0.041753 0.051292 -0.622282 -11.227024 2.373078 1.771787 10.483394 -0.419511 -0.562016 4.084409 -0.060416 -0.384558 4.488131 -0.317973 -2.918057 -4.777502 -0.374671 -1.395908 -11.776768 0.524979 -2.609093 14.839781 -2.484165 8.927153 7.863839 -0.459448 2.810843 -0.000000 0.000000 -0.000000 -0.000003 -14.241347 14.482120 13.090220 32.583878 64.465026 -353.886526 105.531436 354.108207 3.057084 -13.496682 12.889182 -6.995337 2.739894 68.715227 -0.000001 0.000001 69.488658 -0.000000 0.000001 34.034529 -0.000001 -0.000000 -0.000001 -16.262576 -0.408697 0.255064 -1.420714 -4.887095 79.156046 -5.145924 -4.607027 83.666853 -2.485869 -0.636642 28.725925 -0.000000 -0.000000 -0.000001 -3.566057 0.715408 -1.263184 -9.061150 -8.737918 65.731418 -10.402862 -5.294215 53.850424 -7.233568 -2.232779 34.268753 -0.000000 0.000001 0.000001 -9.847057 7.228384 -1.055097 12.409245 -6.764271 46.398759 4.205514 2.159859 54.352829 1.746044 0.303709 19.732958 -0.000000 -0.000000 -0.000002 55.264437 1.006074 3.307470 -1.551520 -12.019460 -0.620026 3.002779 -5.021080 8.418410 -0.000003 0.000000 -0.000000 -0.000000 2.272594 -4.413933 8.979476 -18.707796 -75.499163 -138.069993 -62.433694 -141.472260 11.363242 25.117174 -25.335443 -6.671938 -6.169166 -47.426829 -0.000001 -0.000002 -54.997575 0.000001 -0.000001 -36.787792 -0.000001 -0.000000 0.000000 -23.162037 0.387442 -2.277159 0.399302 5.538806 -46.148388 -4.961534 3.699830 -73.408954 -2.356574 0.568134 -27.105795 -0.000001 0.000000 0.000000 -3.405949 -1.512608 -0.572816 -4.320353 6.799828 -35.922635 -9.441854 4.131481 -47.188670 -6.500558 1.768888 -30.415994 -0.000001 0.000000 0.000000 -11.279859 -5.771068 0.279410 10.855200 8.895848 -38.002110 4.105094 -2.024636 -52.490465 1.346692 -0.178448 -15.095510 0.000001 -0.000001 0.000002 54.552584 0.956386 -9.090583 -1.293968 11.017268 0.256655 1.627613 2.929427 -4.783931 -0.000000 0.000006 0.000003 27.656100 -8.691324 -1.123625 -16.890539 -0.000000 -0.000001 3.318267 14.415541 -5.062872 0.000000 -0.000000 -0.000000 -9.885773 0.000001 0.000000 0.000000 0.000001 -0.000000 23.433066 11.156006 -6.641781 -6.082730 -0.000001 -0.000000 -2.520158 -10.487090 3.111640 -0.000000 0.000000 0.000000 0.363700 -0.000000 -0.000000 0.000000 -0.000000 0.00000
0.040940 0.056648 -0.639084 -11.327642 2.465605 1.794064 10.527680 -0.429761 -0.554161 4.111647 -0.058183 -0.398461 4.514609 -0.297056 -2.919388 -4.769063 -0.366273 -1.381153 -11.726934 0.525877 -2.652317 14.809066 -2.465148 9.015868 7.799221 -0.460814 2.823367 0.000000 0.000000 -0.000000 -0.000003 -14.257223 14.469664 13.089906 32.601897 64.453770 -353.761616 105.572923 353.988952 3.051205 -13.551056 12.816181 -6.986037 2.728354 68.770866 -0.000000 0.000001 69.513157 -0.000000 0.000000 34.014164 0.000000 0.000000 0.000001 -16.226673 -0.411419 0.246971 -1.437915 -4.885303 79.212163 -5.145965 -4.607397 83.670958 -2.484823 -0.636070 28.712712 0.000001 -0.000002 -0.000002 -3.569209 0.713818 -1.264180 -9.058281 -8.742938 65.751806 -10.402611 -5.293873 53.848556 -7.238899 -2.236411 34.297385 -0.000001 -0.000000 -0.000000 -9.831694 7.227321 -1.054885 12.415023 -6.748228 46.449808 4.205873 2.160359 54.359649 1.745666 0.303575 19.728496 0.000000 -0.000001 -0.000002 55.251917 0.998566 3.293429 -1.562765 -12.054587 -0.636721 3.013668 -5.036527 8.446061 0.000000 0.000002 -0.000001 -0.000001 2.244400 -4.372131 8.946340 -18.755491 -75.578372 -138.277603 -62.513511 -141.655432 11.335359 25.109992 -25.285505 -6.710907 -6.164535 -47.615882 0.000001 -0.000002 -54.956696 -0.000000 -0.000001 -36.778701 0.000001 -0.000000 -0.000000 -23.210689 0.402554 -2.276395 0.412731 5.548182 -46.401799 -4.958331 3.689136 -73.285464 -2.354118 0.566875 -27.075261 -0.000001 0.000002 -0.000002 -3.362071 -1.511816 -0.572522 -4.338344 6.833772 -36.193370 -9.426082 4.114533 -47.086399 -6.466697 1.749090 -30.241677 -0.000001 0.000000 0.000000 -11.293182 -5.784389 0.284361 10.876730 8.849976 -38.146323 4.116084 -2.039000 -52.690460 1.352921 -0.180132 -15.167004 -0.000000 -0.000003 0.000001 54.588521 0.908978 -9.026063 -1.244909 10.861525 0.183497 1.620464 2.917750 -4.764208 0.000001 0.000005 0.000001 27.808745 -8.554643 -1.139092 -17.008889 -0.000000 -0.000001 3.268139 14.099303 -4.585301 -0.000000 0.000000 -0.000000 -9.541716 0.000001 -0.000000 0.000001 0.000001 -0.000000 23.530039 11.128334 -6.629431 -6.122548 -0.000001 -0.000000 -2.475193 -10.547788 3.098126 -0.000000 0.000000 0.000000 0.350545 -0.000000 0.000000 0.000000 0.000000 -0.00000
0.039305 0.060494 -0.678274 -11.364882 2.549755 1.820338 10.539454 -0.430351 -0.556600 4.129401 -0.054636 -0.409043 4.542627 -0.286012 -2.918558 -4.765129 -0.365343 -1.359988 -11.755899 0.526004 -2.697809 14.780811 -2.513684 9.041130 7.806105 -0.463725 2.835426 -0.000001 0.000000 -0.000000 -0.000003 -14.296809 14.450402 13.057242 32.640709 64.455252 -353.656294 105.594383 353.888056 3.049777 -13.564944 12.797939 -6.957179 2.723315 68.725705 -0.000001 0.000001 69.564589 -0.000001 0.000001 33.996734 -0.000000 -0.000000 0.000001 -16.204366 -0.416997 0.240241 -1.444799 -4.883983 79.211015 -5.146206 -4.609544 83.694884 -2.484237 -0.635749 28.705321 -0.000000 -0.000000 0.000000 -3.561008 0.710513 -1.261648 -9.057096 -8.741280 65.740345 -10.403542 -5.295143 53.855499 -7.240884 -2.237764 34.308040 -0.000000 -0.000002 0.000001 -9.811667 7.226049 -1.050308 12.412745 -6.745414 46.451095 4.207032 2.161975 54.381631 1.744743 0.303243 19.717643 -0.000001 0.000001 0.000000 55.251364 1.011358 3.289998 -1.551386 -12.017274 -0.620007 3.016297 -5.040244 8.452730 -0.000002 0.000005 0.000001 -0.000000 2.262473 -4.350349 8.888212 -18.811862 -75.617981 -137.961898 -62.447416 -141.362786 11.353749 25.141872 -25.296082 -6.681253 -6.150845 -47.551565 -0.000000 -0.000001 -54.941188 -0.000000 -0.000001 -36.733085 -0.000000 -0.000001 -0.000000 -23.203242 0.404488 -2.272669 0.421133 5.556716 -46.361893 -4.956877 3.684323 -73.229860 -2.354024 0.566829 -27.074091 -0.000001 0.000007 -0.000001 -3.361004 -1.512031 -0.573640 -4.323972 6.850749 -36.183211 -9.420001 4.108016 -47.047029 -6.460166 1.745288 -30.208096 0.000000 -0.000003 -0.000000 -11.265180 -5.782721 0.292822 10.841542 8.836793 -38.080682 4.113321 -2.035377 -52.640077 1.354546 -0.180572 -15.185638 0.000002 0.000002 0.000000 54.576705 0.879882 -8.997136 -1.207965 10.790627 0.123189 1.627480 2.929219 -4.783575 -0.000002 0.000002 0.000002 27.839019 -8.626876 -1.105946 -17.027206 0.000000 -0.000001 3.334517 14.059275 -4.793135 0.000000 0.000000 -0.000000 -9.738035 -0.000001 -0.000000 0.000001 0.000001 -0.000000 23.554416 11.164211 -6.632467 -6.154026 -0.000000 -0.000001 -2.430404 -10.663773 3.102494 0.000000 -0.000000 0.000000 0.294123 0.000000 0.000000 -0.000000 0.000000 -0.00000
0.039506 0.062836 -0.720770 -11.378877 2.624668 1.848509 10.552055 -0.421011 -0.589587 4.134816 -0.046472 -0.423352 4.538425 -0.241918 -2.886689 -4.770627 -0.342607 -1.312682 -11.720738 0.412588 -2.732266 14.747099 -2.538958 9.014292 7.794605 -0.464834 2.827159 -0.000000 -0.000000 0.000000 -0.000003 -14.381307 14.405735 13.061114 32.653263 64.417071 -353.643590 105.595981 353.875844 3.027568 -13.511192 12.755588 -6.938188 2.720671 68.691008 -0.000000 0.000000 69.640301 0.000000 0.000000 33.974433 -0.000001 0.000000 0.000000 -16.194495 -0.421175 0.239088 -1.464217 -4.880892 79.231936 -5.146385 -4.611165 83.712936 -2.484152 -0.635703 28.704246 -0.000000 -0.000002 -0.000001 -3.560928 0.718317 -1.254588 -9.062552 -8.741784 65.755133 -10.401907 -5.292914 53.843303 -7.244343 -2.240124 34.326625 -0.000001 -0.000000 0.000001 -9.813674 7.221151 -1.047386 12.419008 -6.755395 46.442302 4.208028 2.163364 54.400531 1.741406 0.302047 19.678371 -0.000001 -0.000001 -0.000002 55.231003 0.995151 3.287617 -1.579783 -12.023428 -0.670125 3.009879 -5.031150 8.436437 -0.000000 -0.000003 -0.000002 -0.000001 2.195071 -4.411515 8.898556 -18.831200 -75.633178 -138.320319 -62.545688 -141.689146 11.313626 25.059759 -25.283361 -6.684343 -6.148088 -47.577616 -0.000001 -0.000002 -54.817193 -0.000001 -0.000000 -36.657704 0.000001 -0.000000 -0.000000 -23.214273 0.407953 -2.286049 0.400931 5.537397 -46.370325 -4.955532 3.679879 -73.178503 -2.349847 0.564699 -27.022172 -0.000000 0.000000 0.000001 -3.382242 -1.529176 -0.588765 -4.338244 6.838696 -36.215852 -9.420392 4.108429 -47.049522 -6.461901 1.746299 -30.217006 -0.000000 0.000002 -0.000001 -11.287285 -5.774019 0.301803 10.831461 8.828207 -38.071147 4.097936 -2.015339 -52.360736 1.341438 -0.177034 -15.035234 -0.000000 -0.000000 -0.000000 54.521220 0.905389 -9.009570 -1.270331 10.874966 0.228805 1.605950 2.894003 -4.724108 -0.000000 0.000003 -0.000004 27.819903 -8.734186 -1.090431 -16.989862 0.000001 -0.000001 3.323020 14.105417 -4.934702 0.000000 -0.000000 -0.000000 -9.823771 -0.000000 0.000000 -0.000000 -0.000000 0.000000 23.546900 11.186082 -6.637664 -6.173116 -0.000002 -0.000000 -2.417124 -10.760096 3.048119 0.000000 -0.000000 0.000000 0.316288 0.000000 -0.000000 -0.000000 -0.000000 0.00000
